<?xml version="1.0" encoding="iso-8859-1"?>
<!-- Generator: Adobe Illustrator 19.0.0, SVG Export Plug-In . SVG Version: 6.00 Build 0)  -->
<svg version="1.1" id="Layer_1" xmlns="http://www.w3.org/2000/svg" xmlns:xlink="http://www.w3.org/1999/xlink" x="0px" y="0px"
	 viewBox="0 0 512 512" style="enable-background:new 0 0 512 512;" xml:space="preserve">
<g>
	<g>
		<path d="M137.677,315.293c22.433-9.678,37.389-35.63,37.389-72.579c0-62.021-40.468-74.776-89.733-74.776H13.196
			C6.598,167.939,0,171.457,0,178.935v299.547c0,5.719,4.839,10.996,13.196,10.996h82.694c48.826,0,87.093-23.753,87.093-90.612
			v-7.918C182.984,346.083,164.509,326.29,137.677,315.293z M28.591,194.77h55.863c36.068,0,61.581,10.557,61.581,51.024
			c0,41.787-19.354,56.744-59.821,56.744H28.591V194.77z M153.953,397.548c0,45.305-23.313,65.099-61.581,65.099h-63.78V327.609
			h63.78c38.268,0,61.581,16.715,61.581,62.461V397.548z"/>
	</g>
</g>
<g>
	<g>
		<path d="M420.508,167.939c-51.463,0-91.492,25.511-91.492,93.691v136.358c0,68.618,40.027,94.13,91.492,94.13
			c51.465,0,91.492-25.512,91.492-94.13V261.63C512,193.45,471.973,167.939,420.508,167.939z M482.969,397.988
			c0,46.185-23.313,67.299-62.461,67.299s-62.461-21.114-62.461-67.299V261.63c0-45.745,23.313-66.86,62.461-66.86
			s62.461,21.114,62.461,66.86V397.988z"/>
	</g>
</g>
<g>
	<g>
		<path d="M387.959,19.882h-37.093c-44.252,0-82.531,26.045-100.328,63.608c-17.797-37.563-56.075-63.608-100.328-63.608h-37.093
			c-5.867,0-10.622,4.757-10.622,10.622v37.094c0,61.178,49.771,110.949,110.95,110.949h23.204v299.496
			c0,7.477,7.037,11.436,14.516,11.436c7.038,0,14.516-3.959,14.516-11.436V178.548h21.952c61.179,0,110.95-49.771,110.95-110.949
			V30.504C398.581,24.639,393.826,19.882,387.959,19.882z M239.916,142.281l-75.969-75.97c-4.148-4.147-10.874-4.147-15.022,0
			c-4.148,4.148-4.149,10.874,0,15.023l75.969,75.97h-11.448c-49.464-0.001-89.706-40.243-89.706-89.705V41.127h26.471
			c49.463,0,89.705,40.242,89.705,89.705V142.281z M377.337,67.599c0,49.462-40.241,89.704-89.705,89.704h-11.448l49.734-49.734
			c4.148-4.148,4.148-10.874,0-15.023c-4.148-4.147-10.874-4.147-15.022,0l-49.734,49.735v-11.449
			c-0.001-49.463,40.241-89.705,89.704-89.705h26.471V67.599z"/>
	</g>
</g>
<g>
	<g>
		<path d="M352.152,66.309c-4.149-4.149-10.874-4.148-15.023,0.001l-3.769,3.77c-4.148,4.148-4.147,10.874,0.001,15.022
			c2.076,2.076,4.793,3.111,7.511,3.111s5.438-1.038,7.512-3.112l3.769-3.77C356.301,77.183,356.3,70.457,352.152,66.309z"/>
	</g>
</g>
<g>
</g>
<g>
</g>
<g>
</g>
<g>
</g>
<g>
</g>
<g>
</g>
<g>
</g>
<g>
</g>
<g>
</g>
<g>
</g>
<g>
</g>
<g>
</g>
<g>
</g>
<g>
</g>
<g>
</g>
</svg>
