<?xml version="1.0" encoding="iso-8859-1"?>
<!-- Generator: Adobe Illustrator 18.0.0, SVG Export Plug-In . SVG Version: 6.00 Build 0)  -->
<!DOCTYPE svg PUBLIC "-//W3C//DTD SVG 1.1//EN" "http://www.w3.org/Graphics/SVG/1.1/DTD/svg11.dtd">
<svg version="1.1" id="Capa_1" xmlns="http://www.w3.org/2000/svg" xmlns:xlink="http://www.w3.org/1999/xlink" x="0px" y="0px"
	 viewBox="0 0 496.536 496.536" style="enable-background:new 0 0 496.536 496.536;" xml:space="preserve">
<g>
	<path d="M393.312,145.975l7.374-7.375l5.806,5.806c2.246,2.246,5.188,3.369,8.132,3.369c2.942,0,5.887-1.123,8.132-3.368
		c4.491-4.491,4.491-11.772,0-16.264l-28.41-28.411c-4.492-4.492-11.773-4.492-16.264-0.001c-4.491,4.491-4.491,11.772,0,16.264
		l6.342,6.341l-8.299,8.298c-26.815-21.396-59.083-36.224-94.355-42.037V69.045h20.811c11.743,0,21.297-9.554,21.297-21.297V21.297
		C323.876,9.554,314.322,0,302.579,0H193.957c-11.743,0-21.297,9.554-21.297,21.297v26.451c0,11.743,9.554,21.297,21.297,21.297
		h20.812v19.553C117.422,104.64,42.925,189.374,42.925,291.193c0,113.227,92.117,205.343,205.344,205.343
		s205.343-92.116,205.343-205.343C453.611,234.536,430.545,183.165,393.312,145.975z M195.66,23h105.216v23.045H195.66V23z
		 M237.769,69.045h21v17.071c-3.479-0.176-6.979-0.266-10.5-0.266s-7.021,0.09-10.5,0.266V69.045z M248.269,473.536
		c-100.545,0-182.344-81.799-182.344-182.343c0-100.544,81.799-182.343,182.344-182.343c100.544,0,182.343,81.799,182.343,182.343
		C430.611,391.737,348.812,473.536,248.269,473.536z"/>
	<path d="M380.853,279.693c-6.352,0-11.5,5.149-11.5,11.5c0,66.765-54.318,121.083-121.084,121.083s-121.084-54.318-121.084-121.083
		c0-61.92,46.724-113.125,106.764-120.232l-12.931,12.93c-4.491,4.491-4.491,11.772,0,16.264c2.246,2.246,5.189,3.368,8.132,3.368
		c2.942,0,5.887-1.123,8.132-3.368l31.092-31.091c2.156-2.157,3.368-5.082,3.368-8.132c0-3.05-1.212-5.975-3.368-8.132
		l-30.556-30.554c-4.492-4.491-11.773-4.491-16.264,0.001c-4.491,4.491-4.491,11.773,0,16.263l9.619,9.619
		c-71.419,8.482-126.988,69.401-126.988,143.064c0,79.448,64.636,144.083,144.084,144.083s144.084-64.635,144.084-144.083
		C392.353,284.842,387.204,279.693,380.853,279.693z"/>
	<path d="M248.269,251.461c-21.908,0-39.731,17.824-39.731,39.732c0,21.908,17.823,39.731,39.731,39.731
		c21.907,0,39.73-17.823,39.73-39.731c0-5.421-1.095-10.591-3.069-15.304l72.847-70.794c4.555-4.426,4.659-11.707,0.232-16.262
		c-4.428-4.556-11.709-4.659-16.262-0.232l-71.518,69.502C263.934,253.911,256.383,251.461,248.269,251.461z M248.269,307.925
		c-9.226,0-16.731-7.506-16.731-16.731c0-9.226,7.506-16.732,16.731-16.732c9.226,0,16.73,7.506,16.73,16.732
		C264.999,300.419,257.494,307.925,248.269,307.925z"/>
</g>
<g>
</g>
<g>
</g>
<g>
</g>
<g>
</g>
<g>
</g>
<g>
</g>
<g>
</g>
<g>
</g>
<g>
</g>
<g>
</g>
<g>
</g>
<g>
</g>
<g>
</g>
<g>
</g>
<g>
</g>
</svg>
